<svg width="326" height="326" viewBox="0 0 326 326" fill="none" xmlns="http://www.w3.org/2000/svg">
<rect width="326" height="326" rx="21" fill="white" fill-opacity="0.3"/>
<path d="M129.58 273V265H142.444V260.712H129.58V255.88H142.924V251.56H124.78V273H129.58ZM149.768 273V251.56H144.968V273H149.768ZM160.824 273.32C166.296 273.32 169.976 270.056 169.976 265C169.976 259.88 166.296 256.648 160.824 256.648C155.352 256.648 151.672 259.88 151.672 265C151.672 270.056 155.352 273.32 160.824 273.32ZM160.824 269.064C157.56 269.064 156.44 267.816 156.44 265C156.44 262.184 157.56 260.872 160.824 260.872C164.056 260.872 165.208 262.184 165.208 265C165.208 267.816 164.056 269.064 160.824 269.064ZM176.864 273.32C180.416 273.32 182.656 271.816 183.392 269.32H183.648V273H188.128V263.592C188.128 259.4 185.6 256.648 180.256 256.648C174.976 256.648 171.648 259.4 171.648 263.368V263.464H176.48V263.336C176.48 261.512 177.472 260.872 179.904 260.872C182.464 260.872 183.392 261.448 183.392 263.528V264.136L176.512 264.84C173.088 265.192 171.328 266.664 171.328 269.032C171.328 271.72 173.408 273.32 176.864 273.32ZM176.16 268.712C176.16 267.944 176.672 267.624 177.824 267.528L183.392 266.888C183.264 269.16 181.504 269.928 178.24 269.928C176.832 269.928 176.16 269.576 176.16 268.712ZM201.857 273V268.68H198.977C197.281 268.68 196.673 268.264 196.673 266.664V260.936H201.857V256.968H196.673V253.864H191.873V256.968H189.345V260.936H191.873V267.208C191.873 271.24 194.145 273 197.889 273H201.857Z" fill="white"/>
<circle cx="191.291" cy="148.214" r="36.5049" fill="white" fill-opacity="0.5"/>
<circle cx="158.437" cy="131.786" r="36.5049" fill="white" fill-opacity="0.5"/>
<circle cx="176.689" cy="135.436" r="36.5049" fill="white" fill-opacity="0.5"/>
<circle cx="163" cy="140" r="89.4369" stroke="white" stroke-width="9.12621"/>
<circle cx="136.534" cy="131.786" r="36.5049" fill="white"/>
</svg>
