<svg width="201" height="200" viewBox="0 0 201 200" fill="none" xmlns="http://www.w3.org/2000/svg">
<circle cx="100.5" cy="100" r="95.1456" stroke="white" stroke-width="9.70874"/>
<g clip-path="url(#clip0_85_564)">
<path d="M47.073 100.002C47.0958 87.1186 51.6128 74.6472 59.8451 64.7375C68.0774 54.8278 79.5093 48.1008 92.1697 45.7162C104.83 43.3316 117.926 45.4389 129.199 51.6748C140.473 57.9107 149.217 67.8844 153.925 79.8764L145.333 83.2337C142.282 75.4151 137.154 68.5775 130.503 63.458C123.852 58.3384 115.93 55.1309 107.591 54.1813C99.252 53.2317 90.8118 54.5758 83.1801 58.069C75.5485 61.5621 69.0148 67.0717 64.2833 74.004C59.5518 80.9363 56.8018 89.0284 56.3298 97.4082C55.8578 105.788 57.6817 114.138 61.6048 121.558C65.5279 128.977 71.4016 135.186 78.5927 139.514C85.7838 143.842 94.0197 146.125 102.413 146.118C111.698 146.149 120.773 143.36 128.437 138.119C136.102 132.878 141.994 125.433 145.333 116.77L153.925 120.127C149.217 132.119 140.473 142.093 129.199 148.328C117.926 154.564 104.83 156.672 92.1697 154.287C79.5093 151.903 68.0774 145.176 59.8451 135.266C51.6128 125.356 47.0958 112.885 47.073 100.002V100.002Z" fill="white"/>
</g>
<circle cx="145.027" cy="102.027" r="32.0267" fill="white"/>
<defs>
<clipPath id="clip0_85_564">
<rect width="110.68" height="110.68" fill="white" transform="translate(45.1602 44.6602)"/>
</clipPath>
</defs>
</svg>
