<svg width="326" height="326" viewBox="0 0 326 326" fill="none" xmlns="http://www.w3.org/2000/svg">
<rect width="326" height="326" rx="21" fill="white" fill-opacity="0.3"/>
<path d="M121.08 273V267.08H127.48C132.44 267.08 135.64 264.232 135.64 259.304C135.64 254.376 132.44 251.56 127.48 251.56H116.28V273H121.08ZM126.968 255.88C129.624 255.88 130.872 256.68 130.872 259.304C130.872 261.992 129.624 262.76 126.968 262.76H121.08V255.88H126.968ZM142.143 273V263.72C142.143 261.704 142.911 260.712 145.055 260.712C147.007 260.712 147.711 261.48 147.711 263.24V264.904H152.51V262.248C152.51 259.112 151.039 256.648 147.455 256.648C144.223 256.648 142.527 258.632 142.079 261.224H141.791V256.968H137.343V273H142.143ZM162.761 273.32C167.849 273.32 171.241 270.888 171.241 267.4V267.048H166.441V267.368C166.441 268.744 165.449 269.48 162.601 269.48C159.497 269.48 158.345 268.424 158.217 265.96H171.273C171.337 265.416 171.401 265 171.401 264.424C171.401 259.4 167.913 256.648 162.665 256.648C157.385 256.648 153.769 259.88 153.769 265C153.769 270.696 157.417 273.32 162.761 273.32ZM162.569 260.392C165.385 260.392 166.665 261.32 166.793 263.432H158.281C158.505 261.352 159.721 260.392 162.569 260.392ZM181.532 273.32C186.492 273.32 189.468 271.336 189.468 268.328C189.468 265.672 187.868 264.232 183.58 263.752L180.156 263.336C178.044 263.08 177.596 262.728 177.596 261.896C177.596 260.872 178.204 260.456 180.604 260.456C183.548 260.456 184.188 261.128 184.188 262.44V262.632H188.988V262.536C188.988 258.632 186.012 256.648 180.764 256.648C175.26 256.648 172.86 258.888 172.86 261.704C172.86 264.392 174.652 265.832 177.852 266.184L182.364 266.728C184.252 266.984 184.732 267.24 184.732 268.136C184.732 269.096 184.124 269.512 181.564 269.512C178.844 269.512 177.948 269.128 177.948 267.688V267.4H173.148V267.496C173.148 271.208 176.124 273.32 181.532 273.32ZM199.501 273.32C204.461 273.32 207.437 271.336 207.437 268.328C207.437 265.672 205.837 264.232 201.549 263.752L198.125 263.336C196.013 263.08 195.565 262.728 195.565 261.896C195.565 260.872 196.173 260.456 198.573 260.456C201.517 260.456 202.157 261.128 202.157 262.44V262.632H206.957V262.536C206.957 258.632 203.981 256.648 198.733 256.648C193.229 256.648 190.829 258.888 190.829 261.704C190.829 264.392 192.621 265.832 195.821 266.184L200.333 266.728C202.221 266.984 202.701 267.24 202.701 268.136C202.701 269.096 202.093 269.512 199.533 269.512C196.813 269.512 195.917 269.128 195.917 267.688V267.4H191.117V267.496C191.117 271.208 194.093 273.32 199.501 273.32Z" fill="white"/>
<circle cx="163" cy="140" r="89.3" stroke="white" stroke-width="9.4"/>
<circle cx="162.087" cy="140.913" r="41.9806" fill="white"/>
<circle cx="163" cy="140" r="64.7961" fill="white" fill-opacity="0.2"/>
</svg>
