<svg width="326" height="326" viewBox="0 0 326 326" fill="none" xmlns="http://www.w3.org/2000/svg">
<rect width="326" height="326" rx="21" fill="white" fill-opacity="0.3"/>
<path d="M116.08 273V265.224H119.248C121.744 265.224 122.544 265.768 123.408 267.432L126.352 273H131.92L128.816 267.24C128.016 265.736 127.28 264.712 125.36 264.2V263.944C129.392 263.56 131.408 261.48 131.408 257.992C131.408 253.896 128.4 251.56 123.12 251.56H111.28V273H116.08ZM116.08 255.88H123.088C125.36 255.88 126.384 256.616 126.384 258.728C126.384 260.968 125.36 261.608 123.088 261.608H116.08V255.88ZM141.98 273.32C147.452 273.32 151.132 270.056 151.132 265C151.132 259.88 147.452 256.648 141.98 256.648C136.508 256.648 132.828 259.88 132.828 265C132.828 270.056 136.508 273.32 141.98 273.32ZM141.98 269.064C138.716 269.064 137.596 267.816 137.596 265C137.596 262.184 138.716 260.872 141.98 260.872C145.212 260.872 146.364 262.184 146.364 265C146.364 267.816 145.212 269.064 141.98 269.064ZM164.389 273V268.68H161.509C159.812 268.68 159.205 268.264 159.205 266.664V260.936H164.389V256.968H159.205V253.864H154.405V256.968H151.877V260.936H154.405V267.208C154.405 271.24 156.677 273 160.421 273H164.389ZM171.114 273.32C174.666 273.32 176.906 271.816 177.642 269.32H177.898V273H182.378V263.592C182.378 259.4 179.85 256.648 174.506 256.648C169.226 256.648 165.898 259.4 165.898 263.368V263.464H170.73V263.336C170.73 261.512 171.722 260.872 174.154 260.872C176.714 260.872 177.642 261.448 177.642 263.528V264.136L170.762 264.84C167.338 265.192 165.578 266.664 165.578 269.032C165.578 271.72 167.658 273.32 171.114 273.32ZM170.41 268.712C170.41 267.944 170.922 267.624 172.074 267.528L177.642 266.888C177.514 269.16 175.754 269.928 172.49 269.928C171.082 269.928 170.41 269.576 170.41 268.712ZM196.107 273V268.68H193.227C191.531 268.68 190.923 268.264 190.923 266.664V260.936H196.107V256.968H190.923V253.864H186.123V256.968H183.595V260.936H186.123V267.208C186.123 271.24 188.395 273 192.139 273H196.107ZM206.417 273.32C211.505 273.32 214.897 270.888 214.897 267.4V267.048H210.097V267.368C210.097 268.744 209.105 269.48 206.257 269.48C203.153 269.48 202.001 268.424 201.873 265.96H214.929C214.993 265.416 215.057 265 215.057 264.424C215.057 259.4 211.569 256.648 206.321 256.648C201.041 256.648 197.425 259.88 197.425 265C197.425 270.696 201.073 273.32 206.417 273.32ZM206.225 260.392C209.041 260.392 210.321 261.32 210.449 263.432H201.937C202.161 261.352 203.377 260.392 206.225 260.392Z" fill="white"/>
<circle cx="163.5" cy="140" r="89.4369" stroke="white" stroke-width="9.12621"/>
<path d="M113.279 140.002C113.3 127.892 117.546 116.169 125.284 106.854C133.023 97.5385 143.769 91.2151 155.669 88.9736C167.57 86.7321 179.88 88.713 190.477 94.5748C201.074 100.436 209.294 109.812 213.719 121.084L205.643 124.24C202.775 116.891 197.955 110.463 191.703 105.651C185.451 100.838 178.005 97.8235 170.166 96.9308C162.327 96.0382 154.393 97.3017 147.219 100.585C140.046 103.869 133.904 109.048 129.456 115.564C125.009 122.081 122.424 129.687 121.98 137.564C121.536 145.441 123.251 153.29 126.938 160.265C130.626 167.239 136.147 173.075 142.907 177.143C149.667 181.212 157.408 183.358 165.298 183.351C174.026 183.381 182.557 180.758 189.761 175.832C196.966 170.906 202.504 163.908 205.643 155.764L213.719 158.92C209.294 170.192 201.074 179.567 190.477 185.429C179.88 191.291 167.57 193.272 155.669 191.03C143.769 188.789 133.023 182.465 125.284 173.15C117.546 163.835 113.3 152.112 113.279 140.002V140.002Z" fill="white"/>
<circle cx="204.568" cy="140.913" r="23.7282" fill="white"/>
</svg>
